<svg width="672" height="519" viewBox="0 0 507 519" fill="none" xmlns="http://www.w3.org/2000/svg">
<g clip-path="url(#clip0_11_46)">
<path d="M82.6607 489.463C87.1047 490.078 88.1117 497.248 92.146 497.697C96.1804 498.146 103.097 498.842 106.146 500.624C109.195 502.405 113.559 506.325 119.77 503.159C125.982 499.993 135.44 490.682 147.222 476.564C159.005 462.446 167.24 437.793 168.878 424.616C172.14 398.261 159.566 386.707 147.293 395.541C135.021 404.375 132.409 426.312 111.542 446.482C96.5253 460.994 74.8662 472.022 70.336 478.296C65.8058 484.57 76.3228 488.589 82.6607 489.463Z" fill="#D3D3D3"/>
<path d="M667.99 456.784C668.033 454.221 664.837 445.962 658.708 444.067C652.58 442.171 627.465 440.211 611.297 440.199C595.129 440.187 564.955 440.07 555.74 432.349C538.679 418.053 435.283 317.103 363.216 276.095C291.15 235.086 257.326 220.676 241.503 200.223C225.679 179.77 208.033 129.859 200.46 99.1591C192.887 68.459 182.032 27.3092 142.523 7.6158C103.014 -12.0776 26.4203 10.8713 11.7242 26.2045C-2.97185 41.5376 4.64102 69.3545 10.9235 74.0716C17.206 78.7888 20.5197 79.5735 28.1048 79.6996C37.8519 79.8627 48.5876 74.8502 51.5286 71.6284C54.4697 68.4067 46.1115 84.8076 31.4832 84.7584C16.8549 84.7091 17.4246 85.2907 17.1813 88.3647C16.938 91.4387 21.3696 102.667 36.3121 106.76C51.2545 110.852 65.2176 116.28 70.2405 126.558C75.2634 136.835 77.3545 158.83 69.3782 178.311C65.8951 186.816 60.8476 211.784 59.9607 242.844C66.8714 238.727 74.0193 236.382 80.6313 237.582C96.9534 240.514 117.008 247.736 129.12 300.508C142.979 360.967 163.378 413.484 252.974 441.497C321.404 462.895 397.776 473.136 454.442 471.736C473.705 469.637 488.712 468.117 500.547 467.08C506.133 465.923 510.14 465.649 512.829 466.089C539.076 464.212 544.524 465.665 551.632 468.382C564.259 473.21 587.156 485.13 612.48 490.171C637.804 495.211 655.047 500.11 659.817 490.958C664.587 481.807 669.191 477.059 669.552 470.911C669.912 464.763 667.95 459.348 667.99 456.784Z" fill="#EAEAEA"/>
<path d="M89.6793 371.327C134.165 438.99 240.582 496.233 403.649 477.447C423.263 475.188 440.038 473.296 454.442 471.727C397.776 473.127 321.401 462.886 252.974 441.488C163.378 413.487 142.994 360.958 129.12 300.499C117.008 247.721 96.9565 240.496 80.6313 237.573C74.0193 236.385 66.8714 238.717 59.9607 242.835C58.8181 282.947 64.614 333.212 89.6793 371.327Z" fill="white"/>
<path d="M500.547 467.083C505.086 466.683 509.17 466.357 512.829 466.093C510.14 465.653 506.133 465.926 500.547 467.083Z" fill="white"/>
<path d="M15.1149 35.2573C10.5755 40.5191 10.1875 46.7132 5.95294 46.1286C1.71843 45.544 -1.22263 30.2385 0.501975 26.6783C2.22658 23.1182 6.25167 20.6196 10.8681 20.6965C15.4844 20.7734 19.8514 20.5919 21.7176 24.2136C23.5839 27.8353 18.3885 31.4632 15.1149 35.2573Z" fill="#121213"/>
<path d="M92.2385 34.8234C88.0717 39.439 91.4808 49.4765 100.209 49.3657C108.936 49.2549 110.883 40.3129 108.379 36.1711C105.875 32.0294 97.9912 28.4569 92.2385 34.8234Z" fill="#121213"/>
<path d="M104.991 39.4944C104.98 40.1374 104.779 40.7627 104.412 41.2913C104.045 41.8199 103.53 42.228 102.931 42.464C102.333 42.7001 101.677 42.7535 101.048 42.6175C100.419 42.4816 99.8445 42.1623 99.397 41.7001C98.9495 41.2379 98.6491 40.6535 98.5339 40.0207C98.4187 39.388 98.4938 38.7354 98.7498 38.1453C99.0057 37.5552 99.431 37.0542 99.9718 36.7055C100.513 36.3569 101.145 36.1763 101.788 36.1865C102.216 36.1933 102.638 36.2843 103.031 36.4543C103.423 36.6243 103.779 36.8699 104.076 37.1771C104.374 37.4843 104.607 37.8471 104.764 38.2447C104.922 38.6423 104.999 39.067 104.991 39.4944Z" fill="#F5F3E8"/>
<path d="M113.802 111.314C113.769 111.312 113.737 111.303 113.709 111.286C113.68 111.269 113.656 111.246 113.639 111.218C94.425 78.7549 54.1709 59.7139 53.7675 59.5231C53.7244 59.4995 53.6919 59.4603 53.6765 59.4136C53.6612 59.3669 53.6642 59.3161 53.6849 59.2715C53.7057 59.2269 53.7426 59.1919 53.7883 59.1735C53.8339 59.1551 53.8848 59.1547 53.9307 59.1724C54.3372 59.3631 94.696 78.4565 113.984 111.018C114.009 111.063 114.016 111.115 114.003 111.164C113.991 111.214 113.959 111.256 113.916 111.283C113.882 111.304 113.842 111.314 113.802 111.314Z" fill="#FDFEFE"/>
<path d="M118.85 86.023C118.821 86.0229 118.793 86.0165 118.768 86.0043C118.742 85.9921 118.72 85.9743 118.702 85.9523C118.649 85.8846 113.377 79.318 103.085 71.9023C89.1258 61.9443 73.1317 55.2008 56.2528 52.1566C56.2254 52.1548 56.1988 52.1472 56.1746 52.1343C56.1504 52.1214 56.1293 52.1036 56.1125 52.0819C56.0957 52.0603 56.0837 52.0354 56.0772 52.0087C56.0708 51.9821 56.0701 51.9545 56.0751 51.9276C56.0801 51.9007 56.0908 51.8751 56.1065 51.8526C56.1221 51.8302 56.1423 51.8112 56.1658 51.7971C56.1892 51.783 56.2154 51.774 56.2426 51.7707C56.2698 51.7675 56.2974 51.77 56.3236 51.7781C73.2636 54.8332 89.315 61.6032 103.322 71.6007C113.651 79.0442 118.951 85.6476 119.004 85.7122C119.035 85.7523 119.05 85.8033 119.044 85.854C119.038 85.9046 119.013 85.951 118.973 85.983C118.938 86.0108 118.894 86.025 118.85 86.023Z" fill="#FDFEFE"/>
<path d="M92.1029 119.93C92.0645 119.928 92.0271 119.916 91.9955 119.894C91.9638 119.872 91.9391 119.842 91.9243 119.806C79.0514 86.9493 49.0464 67.0651 48.7446 66.8805C48.7058 66.8507 48.6798 66.8073 48.6717 66.7591C48.6636 66.7109 48.674 66.6614 48.7009 66.6205C48.7278 66.5797 48.7691 66.5505 48.8166 66.5388C48.8641 66.5271 48.9143 66.5337 48.9571 66.5574C49.2651 66.7544 79.3655 86.7093 92.2846 119.677C92.3027 119.725 92.3012 119.778 92.2805 119.825C92.2597 119.871 92.2214 119.908 92.1738 119.926C92.1505 119.932 92.1265 119.933 92.1029 119.93Z" fill="#FDFEFE"/>
<path d="M307.798 269.504C299.197 275.901 319.541 284.821 322.716 279.233C325.891 273.645 311.497 266.753 307.798 269.504Z" fill="#D3D3D3"/>
<path d="M333.307 305.819C329.611 309.761 345.625 320.383 349.321 315.051C353.017 309.718 338.53 300.265 333.307 305.819Z" fill="#D3D3D3"/>
<path d="M411.348 350.197C409.386 353.034 416.319 360.025 419.715 356.234C423.112 352.443 414.495 345.634 411.348 350.197Z" fill="#D3D3D3"/>
<path d="M402.858 320.826C399.184 325.636 412.543 334.833 416.119 330.79C419.694 326.747 406.532 316.014 402.858 320.826Z" fill="#D3D3D3"/>
<path d="M370.167 326.691C367.62 330.547 377.377 340.658 382.855 335.362C388.334 330.067 373.844 321.109 370.167 326.691Z" fill="#D3D3D3"/>
<path d="M355.613 291.576C351.942 296.191 368.018 308.226 373.746 303.416C379.474 298.607 361.643 283.984 355.613 291.576Z" fill="#D3D3D3"/>
<path d="M206.884 475.404C221.451 507.335 254.003 523.496 265.065 517.911C276.127 512.326 270.153 510.858 275.764 509.03C281.375 507.202 283.515 505.889 284.722 502.833C285.93 499.777 292.32 499.113 293.401 496.823C294.482 494.534 297.321 485.927 290.109 479.844C282.896 473.761 266.645 469.917 253.402 453.464C240.16 437.011 231.21 399.44 206.438 407.486C186.004 414.127 200.793 462.055 206.884 475.404Z" fill="#EAEAEA"/>
<path d="M268.36 514.483C268.263 514.48 268.166 514.463 268.074 514.434C262.457 512.587 253.522 506.433 253.144 506.184C252.945 506.035 252.811 505.814 252.771 505.569C252.731 505.323 252.787 505.072 252.928 504.867C253.07 504.662 253.285 504.52 253.529 504.47C253.773 504.42 254.026 504.466 254.237 504.599C254.329 504.664 263.322 510.849 268.677 512.6C268.897 512.67 269.083 512.817 269.203 513.013C269.323 513.209 269.369 513.442 269.332 513.669C269.294 513.896 269.177 514.102 269 514.25C268.823 514.398 268.6 514.477 268.369 514.474L268.36 514.483Z" fill="#3C4F58"/>
<path d="M277.725 506.753C277.609 506.753 277.494 506.73 277.387 506.685C272.308 504.631 267.45 502.068 262.888 499.036C262.678 498.891 262.534 498.669 262.488 498.418C262.442 498.167 262.498 497.909 262.643 497.699C262.788 497.489 263.01 497.346 263.261 497.3C263.512 497.254 263.771 497.309 263.981 497.454C268.431 500.395 273.161 502.889 278.101 504.901C278.307 504.986 278.476 505.141 278.58 505.337C278.685 505.534 278.718 505.76 278.673 505.978C278.629 506.196 278.51 506.392 278.337 506.532C278.164 506.672 277.948 506.748 277.725 506.747V506.753Z" fill="#3C4F58"/>
<path d="M287.469 499.608C287.353 499.607 287.238 499.584 287.131 499.541C281.587 497.331 272.681 492.156 272.305 491.925C272.094 491.791 271.942 491.581 271.883 491.338C271.823 491.096 271.861 490.839 271.987 490.623C272.113 490.408 272.319 490.249 272.56 490.182C272.801 490.115 273.058 490.144 273.278 490.263C273.368 490.319 282.428 495.599 287.842 497.753C288.044 497.841 288.21 497.995 288.312 498.191C288.414 498.386 288.446 498.61 288.403 498.826C288.359 499.042 288.243 499.237 288.073 499.378C287.903 499.518 287.69 499.596 287.469 499.599V499.608Z" fill="#3C4F58"/>
<path d="M292.945 491.682C292.82 491.679 292.696 491.652 292.582 491.602C285.579 488.598 278.255 483.601 277.947 483.386C277.737 483.242 277.592 483.02 277.546 482.77C277.499 482.519 277.554 482.261 277.698 482.05C277.842 481.84 278.064 481.696 278.314 481.649C278.565 481.602 278.824 481.657 279.034 481.801C279.111 481.85 286.515 486.906 293.339 489.835C293.543 489.924 293.71 490.08 293.812 490.278C293.914 490.476 293.944 490.702 293.897 490.919C293.851 491.137 293.731 491.331 293.557 491.47C293.384 491.609 293.167 491.684 292.945 491.682Z" fill="#3C4F58"/>
<path d="M107.92 500.796C107.714 500.793 107.514 500.724 107.35 500.599C107.186 500.474 107.067 500.299 107.01 500.101C106.953 499.903 106.961 499.692 107.034 499.499C107.106 499.306 107.239 499.142 107.412 499.03C112.145 495.971 119.278 487.712 119.352 487.629C119.518 487.436 119.754 487.317 120.008 487.298C120.262 487.279 120.513 487.361 120.707 487.527C120.9 487.694 121.019 487.93 121.038 488.183C121.057 488.437 120.974 488.688 120.808 488.881C120.5 489.229 113.417 497.436 108.456 500.642C108.297 500.746 108.11 500.799 107.92 500.796Z" fill="#3C4F58"/>
<path d="M95.315 496.565C95.1141 496.562 94.9194 496.495 94.7581 496.376C94.5968 496.256 94.4772 496.089 94.416 495.897C94.3548 495.706 94.3552 495.501 94.417 495.31C94.4788 495.119 94.599 494.952 94.7607 494.833C99.0306 491.64 102.973 488.032 106.531 484.063C106.613 483.967 106.714 483.888 106.826 483.831C106.939 483.774 107.062 483.74 107.188 483.731C107.314 483.721 107.441 483.736 107.561 483.776C107.681 483.815 107.792 483.877 107.888 483.96C107.984 484.042 108.062 484.142 108.119 484.255C108.176 484.367 108.211 484.49 108.22 484.616C108.23 484.742 108.214 484.868 108.175 484.988C108.136 485.108 108.073 485.219 107.991 485.315C104.347 489.406 100.297 493.118 95.9032 496.393C95.7319 496.514 95.5248 496.575 95.315 496.565Z" fill="#3C4F58"/>
<path d="M85.9282 490.017C85.7272 490.013 85.5324 489.947 85.3711 489.827C85.2098 489.707 85.0901 489.54 85.0287 489.348C84.9672 489.157 84.9672 488.951 85.0285 488.76C85.0899 488.569 85.2096 488.401 85.3708 488.281C90.0642 484.826 97.4892 477.425 97.5631 477.352C97.7467 477.187 97.9864 477.099 98.2329 477.106C98.4795 477.112 98.7141 477.213 98.8885 477.387C99.0628 477.562 99.1638 477.796 99.1704 478.042C99.1771 478.289 99.089 478.528 98.9243 478.712C98.6164 479.019 91.3207 486.291 86.5134 489.829C86.3448 489.955 86.1388 490.021 85.9282 490.017Z" fill="#3C4F58"/>
<path d="M75.1803 487.026C74.981 487.023 74.7875 486.958 74.6266 486.841C74.4658 486.723 74.3456 486.558 74.2827 486.369C74.2197 486.18 74.2172 485.976 74.2754 485.786C74.3336 485.595 74.4496 485.428 74.6075 485.306C80.4588 480.746 86.3501 473.979 86.4087 473.921C86.4914 473.825 86.5921 473.747 86.705 473.691C86.8179 473.634 86.9409 473.6 87.0669 473.591C87.1928 473.582 87.3194 473.598 87.4392 473.638C87.559 473.678 87.6698 473.741 87.7653 473.824C87.8607 473.906 87.9389 474.007 87.9954 474.12C88.052 474.233 88.0857 474.355 88.0947 474.481C88.1037 474.607 88.0878 474.734 88.048 474.853C88.0081 474.973 87.945 475.084 87.8623 475.179C87.619 475.462 81.8015 482.152 75.787 486.832C75.6124 486.963 75.3986 487.032 75.1803 487.026Z" fill="#3C4F58"/>
<path d="M47.3803 56.4123C47.2195 56.1966 47.1466 55.928 47.1763 55.6607C47.206 55.3934 47.3362 55.1473 47.5405 54.9722C47.7261 54.823 47.9536 54.7351 48.1914 54.7208C48.4292 54.7064 48.6656 54.7663 48.8678 54.8922C48.9844 54.988 49.0776 55.109 49.1406 55.2461C49.2036 55.3832 49.2346 55.5327 49.2313 55.6835C49.228 55.8343 49.1906 55.9824 49.1218 56.1166C49.0529 56.2508 48.9545 56.3677 48.8339 56.4584C48.5568 56.6892 47.8762 56.9785 47.3803 56.4123Z" fill="black"/>
<path d="M38.1629 55.2153C37.6579 54.5999 38.1814 53.8522 38.4463 53.646C38.6316 53.5296 38.8513 53.4801 39.0688 53.5059C39.2862 53.5316 39.4882 53.631 39.6412 53.7875C39.8099 53.984 39.9123 54.2286 39.9339 54.4866C39.9554 54.7446 39.8951 55.0028 39.7613 55.2245C39.6688 55.3499 39.548 55.4516 39.4087 55.5214C39.2694 55.5912 39.1156 55.6272 38.9598 55.6263C38.8039 55.6254 38.6505 55.5877 38.512 55.5162C38.3736 55.4448 38.2539 55.3417 38.1629 55.2153Z" fill="black"/>
<path d="M43.8634 46.4178C43.4137 45.907 43.7001 45.3039 44.0327 44.9808C44.5101 44.5131 45.1322 44.4177 45.5726 44.9808C45.724 45.1705 45.8064 45.4059 45.8064 45.6485C45.8064 45.8912 45.724 46.1266 45.5726 46.3163C45.2615 46.7594 44.5286 47.1779 43.8634 46.4178Z" fill="black"/>
<path d="M41.4613 64.9943C40.8761 64.3604 41.3442 63.7634 41.6399 63.548C41.8409 63.4398 42.073 63.404 42.2973 63.4466C42.5216 63.4892 42.7244 63.6076 42.8717 63.7819C43.0284 63.9369 43.1244 64.1427 43.1425 64.3622C43.1605 64.5817 43.0995 64.8004 42.9703 64.9789C42.8802 65.0918 42.766 65.1832 42.6362 65.2465C42.5063 65.3098 42.3639 65.3434 42.2194 65.3448C42.0749 65.3463 41.9319 65.3156 41.8008 65.255C41.6696 65.1943 41.5537 65.1053 41.4613 64.9943Z" fill="black"/>
<path d="M54.1771 46.6302C54.064 46.7345 53.9294 46.8128 53.7827 46.8595C53.636 46.9062 53.4809 46.9202 53.3283 46.9006C53.1756 46.8809 53.0291 46.8281 52.8991 46.7457C52.769 46.6634 52.6587 46.5536 52.5757 46.4241C52.4335 46.1833 52.3862 45.8982 52.4432 45.6245C52.5001 45.3508 52.6572 45.1081 52.8837 44.944C53.2932 44.6609 53.9277 44.8517 54.2972 45.2794C54.4211 45.4888 54.4761 45.7318 54.4546 45.9741C54.433 46.2164 54.336 46.4459 54.1771 46.6302Z" fill="black"/>
</g>
<defs>
<clipPath id="clip0_11_46">
<rect width="672" height="519" fill="white"/>
</clipPath>
</defs>
</svg>
